<svg width="1280" height="340" viewBox="0 0 1280 340" xmlns="http://www.w3.org/2000/svg">
  <defs>
    <linearGradient id="bg" x1="0" y1="0" x2="1" y2="1">
      <stop offset="0%" stop-color="#0b2e4f"/>
      <stop offset="55%" stop-color="#145da0"/>
      <stop offset="100%" stop-color="#2e8bc0"/>
    </linearGradient>
    <linearGradient id="panel" x1="0" y1="0" x2="1" y2="1">
      <stop offset="0%" stop-color="#fff6df"/>
      <stop offset="100%" stop-color="#ffe3a7"/>
    </linearGradient>
  </defs>

  <rect width="1280" height="340" rx="28" fill="url(#bg)"/>
  <circle cx="1160" cy="44" r="168" fill="#ffffff" opacity="0.10"/>
  <circle cx="1208" cy="300" r="158" fill="#fff5d9" opacity="0.10"/>
  <circle cx="84" cy="304" r="132" fill="#b9e4ff" opacity="0.10"/>
  <path d="M0 238C120 196 260 182 402 206C510 224 602 278 734 282C934 288 1076 200 1280 186V340H0V238Z" fill="#0a2238" opacity="0.18"/>

  <rect x="74" y="66" width="176" height="30" rx="15" fill="#fff3da"/>
  <text x="98" y="87" font-size="15" fill="#b45309" font-family="Avenir Next, Segoe UI, sans-serif" font-weight="700">LOCAL-FIRST AI OPS</text>

  <text x="72" y="164" font-size="70" fill="#ffffff" font-family="Avenir Next, Segoe UI, sans-serif" font-weight="800">VANGUARD</text>
  <text x="74" y="214" font-size="28" fill="#dff2ff" font-family="Avenir Next, Segoe UI, sans-serif" font-weight="600">AI Release Intelligence and PR Risk Copilot</text>
  <text x="74" y="264" font-size="18" fill="#d6ecff" font-family="IBM Plex Mono, Menlo, monospace">Grounded analysis • policy gates • release readiness</text>

  <rect x="860" y="78" width="330" height="184" rx="24" fill="#0c2d48" opacity="0.18"/>
  <rect x="838" y="94" width="330" height="184" rx="24" fill="url(#panel)" stroke="#fff3da"/>
  <rect x="866" y="118" width="156" height="30" rx="15" fill="#173f6b"/>
  <text x="890" y="138" font-size="13" fill="#e6f4ff" font-family="Avenir Next, Segoe UI, sans-serif" font-weight="700">CONTROL TOWER</text>

  <rect x="874" y="170" width="252" height="72" rx="20" fill="#fffdf9"/>
  <rect x="898" y="189" width="86" height="36" rx="14" fill="#d7f1e2"/>
  <text x="924" y="213" font-size="15" fill="#16614a" font-family="Avenir Next, Segoe UI, sans-serif" font-weight="700">PR Risk</text>
  <rect x="1000" y="189" width="62" height="36" rx="14" fill="#d8ecff"/>
  <text x="1020" y="213" font-size="15" fill="#145da0" font-family="Avenir Next, Segoe UI, sans-serif" font-weight="700">CI</text>
  <rect x="1074" y="189" width="56" height="36" rx="14" fill="#ffe3da"/>
  <text x="1084" y="213" font-size="15" fill="#c2410c" font-family="Avenir Next, Segoe UI, sans-serif" font-weight="700">Policy</text>

  <line x1="890" y1="252" x2="1116" y2="252" stroke="#173f6b" stroke-width="2.5" stroke-dasharray="6 8" stroke-linecap="round"/>
  <circle cx="920" cy="252" r="6" fill="#ff6b35"/>
  <circle cx="964" cy="252" r="6" fill="#ffb703"/>
  <circle cx="1008" cy="252" r="6" fill="#2a9d8f"/>
  <circle cx="1052" cy="252" r="6" fill="#145da0"/>
  <circle cx="1096" cy="252" r="6" fill="#173f6b"/>
</svg>
