<svg width="1000" height="620" viewBox="0 0 1000 620" xmlns="http://www.w3.org/2000/svg">
  <rect width="1000" height="620" rx="24" fill="#eef4f9"/>
  <rect x="24" y="24" width="210" height="572" rx="18" fill="#0b4f7a"/>
  <text x="54" y="68" font-size="24" fill="#ffffff" font-family="Avenir Next, Segoe UI, sans-serif" font-weight="700">VANGUARD</text>

  <rect x="48" y="98" width="162" height="34" rx="12" fill="#1f6b98"/>
  <text x="72" y="120" font-size="15" fill="#dff2ff" font-family="Avenir Next, Segoe UI, sans-serif">Overview</text>
  <rect x="48" y="142" width="162" height="34" rx="12" fill="#135981"/>
  <text x="72" y="164" font-size="15" fill="#dff2ff" font-family="Avenir Next, Segoe UI, sans-serif">PR Workspace</text>
  <rect x="48" y="186" width="162" height="34" rx="12" fill="#135981"/>
  <text x="72" y="208" font-size="15" fill="#dff2ff" font-family="Avenir Next, Segoe UI, sans-serif">Release Center</text>
  <rect x="48" y="230" width="162" height="34" rx="12" fill="#135981"/>
  <text x="72" y="252" font-size="15" fill="#dff2ff" font-family="Avenir Next, Segoe UI, sans-serif">Policy Center</text>

  <rect x="258" y="24" width="718" height="92" rx="18" fill="#ffffff"/>
  <text x="288" y="62" font-size="24" fill="#0c2d48" font-family="Avenir Next, Segoe UI, sans-serif" font-weight="700">Engineering Intelligence Dashboard</text>
  <text x="288" y="88" font-size="15" fill="#4f6980" font-family="Avenir Next, Segoe UI, sans-serif">Release readiness, PR risk trends, and policy posture in one place.</text>
  <rect x="804" y="46" width="138" height="34" rx="14" fill="#fff1cd"/>
  <text x="824" y="68" font-size="14" fill="#9a6700" font-family="Avenir Next, Segoe UI, sans-serif" font-weight="700">Last sync: 2m ago</text>

  <rect x="258" y="136" width="166" height="110" rx="18" fill="#ffffff"/>
  <text x="284" y="170" font-size="14" fill="#5a7287" font-family="Avenir Next, Segoe UI, sans-serif">Open PRs</text>
  <text x="286" y="216" font-size="38" fill="#0b4f7a" font-family="Avenir Next, Segoe UI, sans-serif" font-weight="800">24</text>
  <rect x="284" y="226" width="92" height="10" rx="5" fill="#d8ecff"/>

  <rect x="444" y="136" width="166" height="110" rx="18" fill="#ffffff"/>
  <text x="470" y="170" font-size="14" fill="#5a7287" font-family="Avenir Next, Segoe UI, sans-serif">Blocked releases</text>
  <text x="472" y="216" font-size="38" fill="#c2410c" font-family="Avenir Next, Segoe UI, sans-serif" font-weight="800">3</text>
  <rect x="470" y="226" width="92" height="10" rx="5" fill="#ffe3da"/>

  <rect x="630" y="136" width="166" height="110" rx="18" fill="#ffffff"/>
  <text x="656" y="170" font-size="14" fill="#5a7287" font-family="Avenir Next, Segoe UI, sans-serif">Policy pass rate</text>
  <text x="658" y="216" font-size="38" fill="#1f8a70" font-family="Avenir Next, Segoe UI, sans-serif" font-weight="800">92%</text>
  <rect x="656" y="226" width="92" height="10" rx="5" fill="#d7f1e2"/>

  <rect x="816" y="136" width="160" height="110" rx="18" fill="#ffffff"/>
  <text x="842" y="170" font-size="14" fill="#5a7287" font-family="Avenir Next, Segoe UI, sans-serif">Eval trend</text>
  <text x="844" y="216" font-size="38" fill="#6d28d9" font-family="Avenir Next, Segoe UI, sans-serif" font-weight="800">A-</text>
  <rect x="842" y="226" width="92" height="10" rx="5" fill="#ede9fe"/>

  <rect x="258" y="266" width="340" height="150" rx="18" fill="#ffffff"/>
  <text x="286" y="302" font-size="20" fill="#0c2d48" font-family="Avenir Next, Segoe UI, sans-serif" font-weight="700">Risk mix</text>
  <rect x="288" y="350" width="42" height="36" rx="10" fill="#d8ecff"/>
  <rect x="344" y="334" width="42" height="52" rx="10" fill="#8ecae6"/>
  <rect x="400" y="312" width="42" height="74" rx="10" fill="#ffcf99"/>
  <rect x="456" y="344" width="42" height="42" rx="10" fill="#d7f1e2"/>
  <rect x="512" y="326" width="42" height="60" rx="10" fill="#ffe3da"/>
  <text x="292" y="404" font-size="13" fill="#4f6980" font-family="Avenir Next, Segoe UI, sans-serif">low</text>
  <text x="398" y="404" font-size="13" fill="#4f6980" font-family="Avenir Next, Segoe UI, sans-serif">medium</text>
  <text x="510" y="404" font-size="13" fill="#4f6980" font-family="Avenir Next, Segoe UI, sans-serif">high</text>

  <rect x="618" y="266" width="358" height="150" rx="18" fill="#ffffff"/>
  <text x="646" y="302" font-size="20" fill="#0c2d48" font-family="Avenir Next, Segoe UI, sans-serif" font-weight="700">Active release blockers</text>
  <rect x="646" y="326" width="304" height="28" rx="10" fill="#fff7ed"/>
  <text x="662" y="345" font-size="14" fill="#9a3412" font-family="Avenir Next, Segoe UI, sans-serif">Security approval missing for auth-config rollout</text>
  <rect x="646" y="364" width="288" height="28" rx="10" fill="#eef7ff"/>
  <text x="662" y="383" font-size="14" fill="#145da0" font-family="Avenir Next, Segoe UI, sans-serif">CI retry instability on payments-service</text>

  <rect x="258" y="436" width="718" height="160" rx="18" fill="#ffffff"/>
  <text x="286" y="472" font-size="20" fill="#0c2d48" font-family="Avenir Next, Segoe UI, sans-serif" font-weight="700">Recent activity</text>
  <line x1="286" y1="490" x2="948" y2="490" stroke="#d9e6f0"/>
  <text x="286" y="522" font-size="15" fill="#29465f" font-family="Avenir Next, Segoe UI, sans-serif">PR-3413 analyzed with elevated policy risk</text>
  <text x="840" y="522" font-size="14" fill="#6b8396" font-family="Avenir Next, Segoe UI, sans-serif">2m ago</text>
  <text x="286" y="554" font-size="15" fill="#29465f" font-family="Avenir Next, Segoe UI, sans-serif">Release candidate RC-2026.04.21 blocked pending override</text>
  <text x="820" y="554" font-size="14" fill="#6b8396" font-family="Avenir Next, Segoe UI, sans-serif">9m ago</text>
  <text x="286" y="586" font-size="15" fill="#29465f" font-family="Avenir Next, Segoe UI, sans-serif">Eval benchmark completed with 92% pass rate</text>
  <text x="850" y="586" font-size="14" fill="#6b8396" font-family="Avenir Next, Segoe UI, sans-serif">14m ago</text>
</svg>
